<?xml version="1.0" standalone="no"?>
<!DOCTYPE svg PUBLIC "-//W3C//DTD SVG 20010904//EN"
 "http://www.w3.org/TR/2001/REC-SVG-20010904/DTD/svg10.dtd">
<svg version="1.0" xmlns="http://www.w3.org/2000/svg"
 width="1280.000000pt" height="640.000000pt" viewBox="0 0 1280.000000 640.000000"
 preserveAspectRatio="xMidYMid meet">
<metadata>
Created by potrace 1.15, written by Peter Selinger 2001-2017
</metadata>
<g transform="translate(0.000000,640.000000) scale(0.100000,-0.100000)"
fill="#000000" stroke="none">
<path d="M9262 4695 c0 -16 2 -22 5 -12 2 9 2 23 0 30 -3 6 -5 -1 -5 -18z"/>
<path d="M7448 4646 c6 -76 -69 -138 -146 -121 -31 6 -87 52 -114 94 -10 14
-18 21 -18 15 0 -6 17 -30 37 -54 31 -35 37 -49 34 -81 -5 -71 53 -134 138
-149 l36 -7 -30 -13 c-16 -7 -55 -13 -85 -14 -49 0 -52 -1 -24 -9 41 -12 132
14 174 49 90 76 97 240 14 316 -18 16 -19 15 -16 -26z m52 -51 c-1 -5 -7 1
-14 14 -10 18 -15 20 -19 10 -3 -8 -6 0 -6 16 l-1 30 20 -30 c11 -16 20 -34
20 -40z"/>
<path d="M9556 4664 c18 -93 -90 -174 -174 -130 -29 16 -83 69 -100 101 -6 11
-12 14 -12 7 0 -7 20 -34 44 -60 34 -36 42 -52 36 -67 -19 -50 21 -121 85
-150 43 -20 111 -24 107 -7 -1 8 2 11 7 8 15 -9 59 51 72 97 19 71 1 143 -51
207 l-20 25 6 -31z m44 -57 c0 -4 -7 -2 -15 7 -8 8 -15 21 -15 28 1 14 30 -20
30 -35z"/>
<path d="M1138 4648 c11 -74 -54 -131 -142 -126 -30 1 -53 6 -50 9 2 3 -11 19
-28 35 l-31 29 21 -32 c15 -22 22 -46 22 -81 0 -42 5 -55 28 -79 32 -32 63
-48 107 -58 28 -6 28 -7 10 -18 -11 -6 -45 -14 -75 -18 l-55 -6 46 -2 c50 -1
124 24 114 39 -3 5 0 12 6 16 8 4 9 3 5 -4 -4 -7 -3 -12 3 -12 14 0 62 60 78
97 28 68 6 181 -44 225 -19 18 -19 17 -15 -14z m38 -45 c-3 -4 -6 0 -6 8 0 11
-2 11 -10 -1 -7 -12 -10 -8 -10 15 l0 29 16 -22 c9 -13 13 -26 10 -29z"/>
<path d="M3240 4647 c0 -69 -56 -127 -120 -127 -27 0 -70 22 -94 49 -11 12
-24 21 -29 21 -6 0 0 -11 13 -25 19 -20 24 -35 21 -65 -1 -21 3 -49 10 -62 27
-50 101 -93 149 -86 49 7 18 -12 -52 -33 -55 -17 -58 -18 -18 -13 103 14 173
80 195 182 10 47 -11 124 -45 163 l-29 34 -1 -38z m30 -7 c6 -11 7 -20 2 -20
-6 0 -12 9 -15 20 -3 11 -3 20 -1 20 2 0 8 -9 14 -20z"/>
<path d="M5345 4633 c-1 -39 -6 -50 -38 -79 -30 -28 -44 -34 -82 -34 -38 0
-51 6 -85 36 -47 42 -64 42 -21 0 25 -24 28 -31 18 -47 -31 -49 57 -159 127
-159 14 0 27 -4 30 -9 8 -12 -19 -22 -84 -31 l-55 -7 46 -2 c50 -1 123 24 114
39 -3 5 0 12 6 16 8 4 9 3 5 -4 -17 -27 15 -9 42 24 33 40 52 94 52 150 0 41
-30 112 -58 137 -16 14 -17 12 -17 -30z m28 2 c4 -8 2 -17 -3 -20 -6 -4 -10 3
-10 14 0 25 6 27 13 6z"/>
<path d="M11660 4646 c0 -83 -53 -129 -145 -124 -29 1 -52 5 -50 9 3 3 -15 23
-38 45 l-42 39 35 -38 c30 -32 34 -43 31 -83 -4 -71 45 -126 128 -145 23 -5
40 -4 50 4 12 10 13 9 7 -1 -12 -19 -53 -34 -116 -42 l-55 -7 48 -2 c185 -5
283 207 166 358 l-19 24 0 -37z m31 -17 c6 -13 7 -19 1 -15 -6 3 -13 0 -15 -6
-3 -7 -6 -1 -6 15 -1 32 4 34 20 6z"/>
<path d="M11357 4349 c7 -7 15 -10 18 -7 3 3 -2 9 -12 12 -14 6 -15 5 -6 -5z"/>
<path d="M2970 4340 c8 -5 20 -10 25 -10 6 0 3 5 -5 10 -8 5 -19 10 -25 10 -5
0 -3 -5 5 -10z"/>
<path d="M5060 4340 c8 -5 20 -10 25 -10 6 0 3 5 -5 10 -8 5 -19 10 -25 10 -5
0 -3 -5 5 -10z"/>
<path d="M9470 4323 l-35 -14 35 6 c19 3 39 10 44 15 13 13 0 11 -44 -7z"/>
<path d="M900 4320 c8 -5 22 -9 30 -9 10 0 8 3 -5 9 -27 12 -43 12 -25 0z"/>
<path d="M5110 4320 c8 -5 22 -9 30 -9 10 0 8 3 -5 9 -27 12 -43 12 -25 0z"/>
<path d="M9358 4313 c7 -3 16 -2 19 1 4 3 -2 6 -13 5 -11 0 -14 -3 -6 -6z"/>
<path d="M9398 4303 c6 -2 18 -2 25 0 6 3 1 5 -13 5 -14 0 -19 -2 -12 -5z"/>
<path d="M1075 2816 c-250 -48 -456 -226 -504 -436 -16 -67 -13 -189 5 -251
46 -156 153 -279 310 -356 90 -44 105 -48 170 -48 61 0 77 4 120 30 30 19 60
49 79 79 26 43 30 59 30 120 0 60 -4 79 -28 118 -25 44 -60 78 -79 78 -5 0 -5
-24 -2 -53 6 -47 4 -56 -20 -84 -46 -54 -109 -52 -169 5 -60 57 -73 123 -37
197 44 91 147 161 252 172 66 6 185 -18 255 -52 160 -79 229 -272 173 -489
-30 -116 -110 -265 -176 -325 -163 -149 -458 -193 -712 -107 -97 33 -141 57
-297 165 -140 96 -310 250 -350 319 -18 30 -45 44 -45 22 0 -5 11 -42 24 -82
54 -161 70 -269 70 -468 -1 -128 -6 -208 -16 -260 -9 -41 -13 -78 -9 -82 4 -5
67 5 141 22 297 65 585 94 920 94 337 0 591 -27 914 -95 76 -16 141 -27 145
-25 4 3 72 18 151 35 539 111 1099 120 1649 25 80 -13 180 -33 223 -44 72 -19
83 -19 136 -6 185 47 481 89 762 107 351 22 758 -10 1140 -91 l135 -28 80 19
c117 28 339 66 505 86 205 25 735 25 940 0 164 -20 399 -60 508 -86 73 -17 75
-17 175 6 490 110 1049 132 1557 62 135 -19 425 -74 441 -85 4 -2 59 7 121 21
614 136 1262 136 1876 0 62 -14 117 -23 121 -20 19 11 36 178 35 350 0 146 -4
201 -22 290 -63 307 -196 578 -389 795 -248 276 -407 364 -658 364 -194 0
-353 -62 -480 -188 -201 -198 -220 -484 -46 -703 75 -95 253 -199 357 -210
167 -17 292 142 242 308 -12 43 -72 119 -93 119 -10 0 -12 -12 -8 -53 5 -47 2
-56 -21 -84 -48 -57 -105 -53 -170 11 -62 59 -70 110 -32 191 40 88 138 157
239 171 63 9 182 -13 254 -47 78 -37 153 -118 183 -197 19 -49 21 -71 17 -167
-3 -92 -9 -124 -36 -195 -43 -115 -107 -224 -156 -264 -183 -150 -460 -187
-722 -97 -165 57 -448 257 -577 407 -68 80 -69 81 -121 204 -81 192 -201 364
-378 539 -191 189 -312 249 -522 258 -141 6 -230 -12 -350 -71 -186 -92 -296
-236 -325 -424 -37 -235 123 -481 380 -582 177 -70 344 31 345 210 0 53 -5 73
-27 112 -32 54 -77 93 -91 79 -5 -5 -5 -17 2 -29 20 -38 13 -72 -23 -108 -49
-49 -103 -46 -164 10 -106 97 -44 266 125 343 49 23 64 25 146 21 143 -8 246
-54 316 -143 117 -147 105 -364 -33 -614 -122 -220 -451 -314 -771 -219 -98
29 -170 67 -320 171 -244 168 -332 264 -413 446 -99 222 -190 351 -381 541
-139 139 -207 186 -321 223 -184 61 -383 47 -559 -40 -95 -46 -224 -170 -264
-255 -103 -215 -64 -431 109 -604 107 -108 273 -183 371 -167 18 3 57 20 85
37 127 76 146 258 38 363 -18 18 -36 30 -40 28 -4 -2 -5 -29 -2 -59 4 -51 2
-57 -26 -86 -24 -24 -39 -30 -71 -30 -35 0 -49 7 -86 41 -60 55 -73 98 -51
172 19 67 78 131 151 167 95 47 246 38 364 -21 150 -75 221 -232 188 -420 -24
-140 -106 -316 -179 -386 -121 -116 -339 -178 -539 -153 -128 15 -264 62 -360
124 -171 110 -251 170 -327 241 -108 102 -153 163 -206 283 -93 211 -216 383
-398 557 -126 120 -190 164 -296 201 -357 124 -763 -52 -862 -374 -29 -93 -27
-226 4 -313 44 -126 134 -231 258 -305 162 -94 285 -96 377 -3 51 51 65 86 65
164 0 78 -14 113 -64 164 -35 34 -67 43 -55 14 29 -67 9 -124 -52 -149 -45
-19 -88 -6 -130 39 -41 43 -53 69 -53 114 1 117 130 236 272 250 62 6 182 -17
243 -47 71 -34 131 -95 167 -168 31 -63 33 -72 33 -177 0 -89 -5 -124 -23
-180 -64 -191 -154 -309 -285 -373 -112 -54 -175 -67 -327 -67 -217 1 -320 37
-556 196 -158 106 -334 272 -371 349 -12 25 -45 95 -73 155 -93 198 -195 339
-372 511 -110 107 -137 127 -219 168 -276 135 -593 90 -801 -115 -173 -169
-214 -389 -111 -599 91 -185 341 -343 492 -309 152 34 229 210 152 345 -45 79
-107 108 -81 38 24 -62 -31 -134 -101 -134 -46 0 -106 48 -134 107 -44 93 50
241 185 288 23 8 75 15 115 15 177 0 330 -95 386 -239 17 -43 22 -77 22 -146
0 -113 -20 -190 -84 -322 -39 -80 -62 -113 -106 -153 -214 -196 -614 -207
-893 -26 -322 209 -451 332 -523 502 -52 122 -80 173 -157 288 -77 114 -263
316 -362 393 -147 112 -369 164 -553 129z"/>
</g>
</svg>
